{
  "accessors": [
    {
      "bufferView": 2,
      "componentType": 5126,
      "count": 23646,
      "max": [
        0.06944732367992401,
        0.05716009438037872,
        0.05640409141778946
      ],
      "min": [
        -0.05641844496130943,
        -0.011946899816393852,
        -0.05640409141778946
      ],
      "type": "VEC3"
    },
    {
      "bufferView": 2,
      "byteOffset": 283752,
      "componentType": 5126,
      "count": 23646,
      "max": [
        1.0,
        1.0,
        1.0
      ],
      "min": [
        -1.0,
        -0.9999861121177673,
        -1.0
      ],
      "type": "VEC3"
    },
    {
      "bufferView": 1,
      "componentType": 5126,
      "count": 23646,
      "max": [
        0.9978104829788208,
        0.9979321956634521
      ],
      "min": [
        0.0019692410714924335,
        0.000346872431691736
      ],
      "type": "VEC2"
    },
    {
      "bufferView": 0,
      "componentType": 5125,
      "count": 107952,
      "type": "SCALAR"
    }
  ],
  "asset": {
    "extras": {
      "author": "pavanahirrao (https://sketchfab.com/pavanahirrao)",
      "license": "CC-BY-4.0 (http://creativecommons.org/licenses/by/4.0/)",
      "source": "https://sketchfab.com/3d-models/construction-helmet-47a4490dc6024782a057e529a266dba0",
      "title": "Construction helmet"
    },
    "generator": "Sketchfab-12.65.0",
    "version": "2.0"
  },
  "bufferViews": [
    {
      "buffer": 0,
      "byteLength": 431808,
      "name": "floatBufferViews",
      "target": 34963
    },
    {
      "buffer": 0,
      "byteLength": 189168,
      "byteOffset": 431808,
      "byteStride": 8,
      "name": "floatBufferViews",
      "target": 34962
    },
    {
      "buffer": 0,
      "byteLength": 567504,
      "byteOffset": 620976,
      "byteStride": 12,
      "name": "floatBufferViews",
      "target": 34962
    }
  ],
  "buffers": [
    {
      "byteLength": 1188480,
      "uri": "scene.bin"
    }
  ],
  "extensionsUsed": [
    "KHR_materials_clearcoat"
  ],
  "materials": [
    {
      "doubleSided": true,
      "extensions": {
        "KHR_materials_clearcoat": {
          "clearcoatFactor": 1.0,
          "clearcoatRoughnessFactor": 0.04
        }
      },
      "name": "Mtl1",
      "pbrMetallicRoughness": {
        "baseColorFactor": [
          0.49203814104980514,
          0.49203814104980514,
          0.49203814104980514,
          1.0
        ],
        "metallicFactor": 0.0,
        "roughnessFactor": 0.0
      }
    }
  ],
  "meshes": [
    {
      "name": "Body_1_Mtl1_0",
      "primitives": [
        {
          "attributes": {
            "NORMAL": 1,
            "POSITION": 0,
            "TEXCOORD_0": 2
          },
          "indices": 3,
          "material": 0,
          "mode": 4
        }
      ]
    }
  ],
  "nodes": [
    {
      "children": [
        1
      ],
      "matrix": [
        3.164096372587494,
        0.2610516369984551,
        -4.614819898752586,
        0.0,
        4.622172434397129,
        -0.16026480441934846,
        3.1600715420909467,
        0.0,
        0.015236902464459079,
        -5.593065384447584,
        -0.3059421440649496,
        0.0,
        0.008534083142876625,
        -0.05473103746771814,
        0.05425766110420226,
        1.0
      ],
      "name": "Sketchfab_model"
    },
    {
      "children": [
        2
      ],
      "matrix": [
        1.0,
        0.0,
        0.0,
        0.0,
        0.0,
        -1.0,
        0.0,
        0.0,
        0.0,
        0.0,
        -1.0,
        0.0,
        0.0,
        0.0,
        0.0,
        1.0
      ],
      "name": "4efba993d957426b8b5ab7c993139806.fbx"
    },
    {
      "children": [
        3,
        5
      ],
      "name": "RootNode"
    },
    {
      "children": [
        4
      ],
      "matrix": [
        -0.5773502691896257,
        0.5773502691896258,
        -0.5773502691896258,
        0.0,
        -0.40824829046386313,
        0.408248290463863,
        0.8164965809277261,
        0.0,
        0.7071067811865476,
        0.7071067811865476,
        0.0,
        0.0,
        0.5773502588272095,
        -0.5773502588272095,
        0.5773502588272095,
        1.0
      ],
      "name": "Default Camera 1"
    },
    {
      "name": "Object_4"
    },
    {
      "children": [
        6
      ],
      "matrix": [
        1.0,
        -6.653853700648292e-16,
        1.2999872505124137e-16,
        0.0,
        -1.2999872505124122e-16,
        2.220446049250313e-16,
        1.0,
        0.0,
        -6.653853700648292e-16,
        -1.0,
        2.220446049250313e-16,
        0.0,
        7.837364250372526e-18,
        0.02260659635066986,
        0.011946899816393852,
        1.0
      ],
      "name": "Assembly-3"
    },
    {
      "children": [
        7
      ],
      "matrix": [
        1.0,
        -2.465190328815662e-32,
        7.960126126361983e-33,
        0.0,
        2.465190328815662e-32,
        1.0,
        0.0,
        0.0,
        -7.960126126361983e-33,
        1.9623225942860438e-64,
        1.0,
        0.0,
        0.0,
        0.0,
        0.0,
        1.0
      ],
      "name": "tg"
    },
    {
      "children": [
        8
      ],
      "matrix": [
        1.0,
        -2.465190328815662e-32,
        7.960126126361983e-33,
        0.0,
        2.465190328815662e-32,
        1.0,
        0.0,
        0.0,
        -7.960126126361983e-33,
        1.9623225942860438e-64,
        1.0,
        0.0,
        0.0,
        0.0,
        0.0,
        1.0
      ],
      "name": "Body_1"
    },
    {
      "mesh": 0,
      "name": "Body_1_Mtl1_0"
    }
  ],
  "scene": 0,
  "scenes": [
    {
      "name": "Sketchfab_Scene",
      "nodes": [
        0
      ]
    }
  ]
}
