 <svg width="230" height="81.3041337144533" viewBox="0 0 320 81.3041337144533" className="css-1j8o68f"><defs id="SvgjsDefs1001"></defs><g id="SvgjsG1007" featurekey="UFHKJ9-0" transform="matrix(0.5682980463800786,0,0,0.5682980463800786,-6.829231232424414,-16.177175214622782)" fill="#4ecca3"><path xmlns="http://www.w3.org/2000/svg" fill="#4ecca3" d="M170.188,112.021c-0.835-25.424-15.257-47.456-36.216-59.092c-2.055-9.005-10.112-15.751-19.731-15.751  h-3.23c-1.184-4.987-5.663-8.712-11.008-8.712c-5.344,0-9.823,3.725-11.007,8.712h-2.062c-9.35,0-17.217,6.377-19.538,15.003  c-21.699,11.425-36.73,33.865-37.584,59.84c-10.01,1.219-17.795,9.754-17.795,20.088c0,5.408,2.106,10.494,5.932,14.318  l12.152,12.152c8.354,8.354,19.461,12.953,31.274,12.953h77.249c11.812,0,22.919-4.6,31.273-12.953l12.152-12.152  c3.825-3.824,5.932-8.91,5.932-14.318C187.982,121.775,180.198,113.24,170.188,112.021z M129.494,57.43  c0,0.221,0.038,0.432,0.092,0.636c-0.054,0.204-0.092,0.415-0.092,0.636v29.323c0,1.381,1.119,2.5,2.5,2.5s2.5-1.119,2.5-2.5V59.042  c18.437,11.537,30.736,32.008,30.736,55.316v13.693c-2.737,1.553-11.648,5.729-31.472,8.148  c-0.877-11.865-5.838-28.965-11.074-47.003c-5.003-17.229-10.162-35.004-11.202-47.018h2.759  C122.651,42.178,129.494,49.02,129.494,57.43z M93.68,39.789c0-3.486,2.837-6.322,6.323-6.322c3.487,0,6.323,2.836,6.323,6.328  c0,0.034,0.001,0.067,0.002,0.101c0.513,12.665,6.126,31.998,11.555,50.694c5.3,18.254,10.78,37.131,11.011,48.301  c0,2.363-1.922,4.285-4.285,4.285H75.504c-2.363,0-4.285-1.922-4.285-4.236c0.183-9.289,4.063-20.59,8.558-33.676  C85.971,87.227,93.68,64.78,93.68,39.789z M66.682,58.311v29.715c0,1.381,1.119,2.5,2.5,2.5s2.5-1.119,2.5-2.5V57.43  c0-8.41,6.843-15.252,15.253-15.252h1.701c-0.457,23.157-7.411,43.474-13.588,61.46c-4.211,12.26-7.889,22.994-8.673,32.453  c-19.583-2.443-28.747-6.551-31.604-8.086v-13.648C34.771,90.556,47.591,69.703,66.682,58.311z M178.516,142.893l-12.152,12.152  c-7.41,7.408-17.261,11.488-27.738,11.488H61.376c-10.478,0-20.329-4.08-27.739-11.488l-12.152-12.152  c-2.88-2.881-4.467-6.711-4.467-10.783c0-7.557,5.53-13.83,12.753-15.029v12.346c0,0.799,0.382,1.549,1.027,2.02  c0.481,0.352,9.356,6.545,35.713,9.713c1.016,4.025,4.657,7.018,8.993,7.018h49.104c4.288,0,7.896-2.926,8.958-6.912  c26.811-3.146,35.262-9.52,35.713-9.877c0.601-0.473,0.951-1.197,0.951-1.961V117.08c7.223,1.199,12.752,7.473,12.752,15.029  C182.982,136.184,181.396,140.012,178.516,142.893z"></path></g><g id="SvgjsG1008" featurekey="XAPJzK-0" transform="matrix(1.2697764396368418,0,0,1.2697764396368418,118.74043129017761,24.419435527254343)" fill="#393e46"><path d="M6.5 6.42 l2.08 12.7 c0.16 1 -2.1 1.1 -2.22 0.38 l-0.4 -2.4 l-2.34 0 l-0.4 2.4 c-0.1 0.6 -2.38 0.62 -2.22 -0.38 l2.1 -12.7 c0.1 -0.6 3.32 -0.54 3.4 0 z M5.58 14.84 l-0.78 -4.78 l-0.8 4.78 l1.58 0 z M12.18 6 l2.7 0 c3.34 0 3.44 14 0.2 14 l-2.84 0 c-1.26 0 -1.26 0 -1.26 -1.1 l0 -11.8 c0 -1.08 0 -1.08 1.2 -1.1 z M14.06 8.26 l-0.02 0 c-0.8 0 -0.8 0 -0.8 0.76 l0 7.96 c0 0.74 0 0.74 0.84 0.74 l0.12 0 c1.3 0 1.24 -9.46 -0.14 -9.46 z M21.44 6 l2.7 0 c3.34 0 3.44 14 0.2 14 l-2.84 0 c-1.26 0 -1.26 0 -1.26 -1.1 l0 -11.8 c0 -1.08 0 -1.08 1.2 -1.1 z M23.32 8.26 l-0.02 0 c-0.8 0 -0.8 0 -0.8 0.76 l0 7.96 c0 0.74 0 0.74 0.84 0.74 l0.12 0 c1.3 0 1.24 -9.46 -0.14 -9.46 z M29.5 19.56 l0 -13.14 c0 -0.6 2.28 -0.6 2.28 0 l0 13.14 c0 0.6 -2.28 0.6 -2.28 0 z M40.88 16.42 c0.04 0.68 -0.14 1.44 -0.52 2 c-0.18 0.26 -0.38 0.52 -0.64 0.74 c-0.16 0.12 -0.32 0.26 -0.5 0.36 s-0.38 0.18 -0.56 0.26 c-0.6 0.26 -1.32 0.28 -1.94 0.12 c-0.32 -0.08 -0.62 -0.2 -0.9 -0.38 c-0.26 -0.16 -0.54 -0.36 -0.74 -0.6 c-0.22 -0.24 -0.42 -0.5 -0.56 -0.8 c-0.08 -0.18 -0.18 -0.38 -0.24 -0.58 c-0.04 -0.2 -0.1 -0.72 -0.1 -0.92 c0 -0.6 2.24 -0.6 2.24 0 c0 0.5 0.78 1.84 1.98 0.64 c0.5 -0.72 0.04 -1.54 -0.4 -2.14 c-0.68 -0.84 -1.56 -1.48 -2.28 -2.28 c-0.42 -0.46 -0.84 -0.98 -1.1 -1.56 c-0.14 -0.32 -0.26 -0.64 -0.34 -1 c-0.3 -1.66 0.22 -4.62 3.84 -4.28 c1.82 0.18 2.62 1.74 2.62 2.8 c0 0.6 -2.28 0.6 -2.28 0 c0 -0.8 -2.26 -0.9 -1.98 0.86 c0.04 0.18 0.08 0.36 0.16 0.54 c0.12 0.26 0.26 0.48 0.42 0.7 c0.2 0.26 0.4 0.48 0.64 0.7 c0.88 0.86 1.88 1.64 2.52 2.74 c0.38 0.64 0.6 1.34 0.66 2.08 z M54.14 16.2 c0 -0.6 2.22 -0.6 2.22 0 c0 2.24 -1.16 3.8 -3.28 3.8 c-2.22 0 -3.74 -1.38 -3.8 -3.5 l0 -0.04 l0 -6.9 l0 -0.04 c0.06 -2.14 1.66 -3.56 3.8 -3.52 c2.24 0.04 3.28 1.6 3.28 3.82 c0 0.6 -2.22 0.6 -2.22 0 c0 -0.22 0 -0.4 -0.04 -0.6 c-0.12 -1.18 -1.54 -0.96 -1.84 -0.8 c-0.58 0.28 -0.7 0.98 -0.7 1.46 l0 6.26 c0.02 0.48 0.12 1.18 0.7 1.46 c0.3 0.16 1.72 0.38 1.84 -0.78 c0.04 -0.2 0.04 -0.4 0.04 -0.62 z M65.3 8.82 c0.06 0.22 0.02 8.34 -0.06 8.64 c-0.36 1.54 -1.44 2.54 -3.14 2.54 l-0.52 0 c-1.68 0 -2.76 -1 -3.14 -2.54 c-0.08 -0.3 -0.1 -8.42 -0.06 -8.64 c0.28 -1.68 1.32 -2.78 3.2 -2.82 l0.52 0 c1.9 0.04 2.92 1.14 3.2 2.82 z M61.28 17.6 c0.34 0.18 0.78 0.18 1.12 0 c0.58 -0.28 0.68 -0.98 0.7 -1.46 l0 -6.26 c0 -0.48 -0.12 -1.18 -0.7 -1.46 c-0.34 -0.18 -0.78 -0.18 -1.12 0 c-0.58 0.28 -0.7 0.98 -0.7 1.46 l0 6.26 c0.02 0.48 0.12 1.18 0.7 1.46 z M72.86 13.6 l0 -7.18 c0 -0.6 2.2 -0.6 2.2 0 l0 12.74 c0 1 -1.92 1.02 -2.12 0.52 l-3 -7.36 l0 7.24 c0 0.6 -2.22 0.6 -2.22 0 l0 -12.5 c0 -1.56 1.9 -1.08 2.2 -0.48 z M84.16 16.42 c0.04 0.68 -0.14 1.44 -0.52 2 c-0.18 0.26 -0.38 0.52 -0.64 0.74 c-0.16 0.12 -0.32 0.26 -0.5 0.36 s-0.38 0.18 -0.56 0.26 c-0.6 0.26 -1.32 0.28 -1.94 0.12 c-0.32 -0.08 -0.62 -0.2 -0.9 -0.38 c-0.26 -0.16 -0.54 -0.36 -0.74 -0.6 c-0.22 -0.24 -0.42 -0.5 -0.56 -0.8 c-0.08 -0.18 -0.18 -0.38 -0.24 -0.58 c-0.04 -0.2 -0.1 -0.72 -0.1 -0.92 c0 -0.6 2.24 -0.6 2.24 0 c0 0.5 0.78 1.84 1.98 0.64 c0.5 -0.72 0.04 -1.54 -0.4 -2.14 c-0.68 -0.84 -1.56 -1.48 -2.28 -2.28 c-0.42 -0.46 -0.84 -0.98 -1.1 -1.56 c-0.14 -0.32 -0.26 -0.64 -0.34 -1 c-0.3 -1.66 0.22 -4.62 3.84 -4.28 c1.82 0.18 2.62 1.74 2.62 2.8 c0 0.6 -2.28 0.6 -2.28 0 c0 -0.8 -2.26 -0.9 -1.98 0.86 c0.04 0.18 0.08 0.36 0.16 0.54 c0.12 0.26 0.26 0.48 0.42 0.7 c0.2 0.26 0.4 0.48 0.64 0.7 c0.88 0.86 1.88 1.64 2.52 2.74 c0.38 0.64 0.6 1.34 0.66 2.08 z M86.2 6 l7.96 0 c0.6 0 0.6 2.24 0 2.24 l-2.84 0.04 l0 11.28 c0 0.6 -2.28 0.6 -2.28 0 l0 -11.28 l-2.84 -0.04 c-0.6 0 -0.6 -2.24 0 -2.24 z M104.12 18.86 c0.42 1 -1.82 1.48 -2.08 0.88 l-0.12 -0.28 c-0.66 -1.58 -1.38 -3.38 -2.04 -4.98 l-0.98 0 l0 5.08 c0 0.6 -2.28 0.6 -2.28 0 l0 -12.3 c0 -0.94 0.02 -1.24 1.42 -1.26 l2.06 0 c0.72 0 1.52 0.02 2.14 0.42 c1.36 0.86 1.78 2.38 1.76 3.92 c-0.02 1.28 -0.2 2.56 -1.46 3.5 c-0.14 0.08 -0.26 0.16 -0.38 0.24 c0.64 1.52 1.34 3.26 1.96 4.78 z M98.9 12.2 l1.72 0 c0.92 0 1.06 -1.12 1.1 -1.44 c0.02 -0.22 0.02 -1.02 -0.02 -1.4 c-0.08 -0.74 -0.36 -1.12 -1.28 -1.12 l-1.52 0 l0 3.96 z M114.78 6.4399999999999995 l0 8.6 c0 6.6 -7.8 6.64 -7.8 -0.02 l0 -8.6 c0 -0.6 2.28 -0.6 2.28 0 l0 8.6 c0 3.66 3.24 3.68 3.24 0.02 l0 -8.6 c0 -0.6 2.28 -0.6 2.28 0 z M122.44 16.2 c0 -0.6 2.22 -0.6 2.22 0 c0 2.24 -1.16 3.8 -3.28 3.8 c-2.22 0 -3.74 -1.38 -3.8 -3.5 l0 -0.04 l0 -6.9 l0 -0.04 c0.06 -2.14 1.66 -3.56 3.8 -3.52 c2.24 0.04 3.28 1.6 3.28 3.82 c0 0.6 -2.22 0.6 -2.22 0 c0 -0.22 0 -0.4 -0.04 -0.6 c-0.12 -1.18 -1.54 -0.96 -1.84 -0.8 c-0.58 0.28 -0.7 0.98 -0.7 1.46 l0 6.26 c0.02 0.48 0.12 1.18 0.7 1.46 c0.3 0.16 1.72 0.38 1.84 -0.78 c0.04 -0.2 0.04 -0.4 0.04 -0.62 z M126.7 6 l7.96 0 c0.6 0 0.6 2.24 0 2.24 l-2.84 0.04 l0 11.28 c0 0.6 -2.28 0.6 -2.28 0 l0 -11.28 l-2.84 -0.04 c-0.6 0 -0.6 -2.24 0 -2.24 z M137.12 19.56 l0 -13.14 c0 -0.6 2.28 -0.6 2.28 0 l0 13.14 c0 0.6 -2.28 0.6 -2.28 0 z M148.74 8.82 c0.06 0.22 0.02 8.34 -0.06 8.64 c-0.36 1.54 -1.44 2.54 -3.14 2.54 l-0.52 0 c-1.68 0 -2.76 -1 -3.14 -2.54 c-0.08 -0.3 -0.1 -8.42 -0.06 -8.64 c0.28 -1.68 1.32 -2.78 3.2 -2.82 l0.52 0 c1.9 0.04 2.92 1.14 3.2 2.82 z M144.72 17.6 c0.34 0.18 0.78 0.18 1.12 0 c0.58 -0.28 0.68 -0.98 0.7 -1.46 l0 -6.26 c0 -0.48 -0.12 -1.18 -0.7 -1.46 c-0.34 -0.18 -0.78 -0.18 -1.12 0 c-0.58 0.28 -0.7 0.98 -0.7 1.46 l0 6.26 c0.02 0.48 0.12 1.18 0.7 1.46 z M156.3 13.6 l0 -7.18 c0 -0.6 2.2 -0.6 2.2 0 l0 12.74 c0 1 -1.92 1.02 -2.12 0.52 l-3 -7.36 l0 7.24 c0 0.6 -2.22 0.6 -2.22 0 l0 -12.5 c0 -1.56 1.9 -1.08 2.2 -0.48 z"></path></g></svg>
